<?xml version="1.0" encoding="utf-8"?>
<!-- Generator: Adobe Illustrator 15.1.0, SVG Export Plug-In . SVG Version: 6.00 Build 0)  -->
<!DOCTYPE svg PUBLIC "-//W3C//DTD SVG 1.1//EN" "http://www.w3.org/Graphics/SVG/1.1/DTD/svg11.dtd">
<svg version="1.1" id="Layer_1" xmlns="http://www.w3.org/2000/svg" xmlns:xlink="http://www.w3.org/1999/xlink" x="0px" y="0px"
	 width="1920px" height="1200px" viewBox="0 0 1920 1200" enable-background="new 0 0 1920 1200" xml:space="preserve">
<path fill="#FFFFFF" d="M1663.454,848.185c22.675-2.126,43.225-6.378,67.316-7.086c-23.737,14.88-48.538,6.377-70.859,14.172
	c-33.304,11.691-57.042,42.161-92.116,56.687c-35.43,14.526-68.379,23.029-120.461,24.801
	c15.234,82.905,39.682,156.245,56.688,237.379c-57.75,2.479-125.066-4.606-177.148,3.543
	c13.464-66.607,57.396-133.924,56.688-226.75c-96.723-35.43-190.965-62.002-244.464-138.175
	c-23.384-33.304-25.155-79.008-70.859-92.117c51.373,7.44,65.545,75.465,102.746,113.375
	c52.436,53.498,123.649,74.401,212.577,95.659c11.338-83.259-2.126-172.896-7.086-251.55
	c-48.893-24.092-99.557-46.767-144.198-75.11c-1.771-1.063-3.188-2.126-4.96-3.188l-5.669-3.897l-22.675-15.589l5.314-15.589
	l26.572,15.589l2.125,1.062c6.023,3.897,12.4,7.44,18.424,10.983c34.367,19.132,72.985,35.075,117.626,50.664
	c-6.731-136.05,26.218-261.471,74.402-354.296c-7.44-12.4-11.691-28.344-21.258-38.972c7.086-4.606,18.424,16.652,21.258,28.343
	c42.161-69.796,78.653-145.615,127.547-209.034c-68.024,111.249-145.97,243.756-173.605,407.44
	c105.935-13.109,177.856-40.744,233.835-109.832c43.579-53.853,56.334-141.718,141.719-155.89
	c-87.511,32.95-103.454,137.466-162.976,198.406c24.092-0.709,42.515-7.086,66.962-7.086
	c-74.757,1.771-102.746,47.121-159.079,70.859c-35.43,14.88-69.442,20.549-120.461,24.801
	c-17.36,146.678,21.967,296.545,46.059,425.154c100.266-19.486,166.165-42.161,219.663-95.659
	c53.854-53.854,65.899-154.119,155.891-173.605C1737.148,688.396,1719.787,787.954,1663.454,848.185z"/>
<path fill="#FFFFFF" d="M1601.453,737.29c0,0,38.264-15.943,28.344,17.715c-9.921,33.304-34.722,45.35-27.99,59.876
	c6.732,14.172-10.629,33.304-26.572,30.114"/>
<path d="M1221.647,595.926l5.669,3.897C1225.19,598.76,1223.419,597.343,1221.647,595.926L1221.647,595.926z"/>
<path d="M1232.984,581.399l-2.125-1.062l0,0C1231.567,580.69,1232.276,581.045,1232.984,581.399z"/>
<path fill="#FFFFFF" d="M1078.512,661.116c0,0-44.287,103.1,53.145,155.89C1131.656,816.652,1218.459,734.455,1078.512,661.116z"/>
<path fill="#FFFFFF" d="M1591.532,18.069c0,0-106.644,35.075-82.196,142.781C1509.336,160.851,1628.733,171.479,1591.532,18.069z"/>
<path fill="#FFFFFF" d="M1382.144,113.729c0,0-55.625,97.431,34.721,160.85C1416.864,274.579,1512.879,202.657,1382.144,113.729z"/>
<path fill="#FFFFFF" d="M1255.66,353.587c0,0,9.211,111.958,119.752,113.021C1375.412,466.607,1413.676,352.879,1255.66,353.587z"/>
<path fill="#FFFFFF" d="M1818.636,150.93c0,0-111.603-11.692-133.215,96.723C1685.421,248.007,1790.293,306.466,1818.636,150.93z"/>
<path fill="#FFFFFF" d="M1522.799,295.483c0,0-81.134,77.59-12.4,164.039C1510.398,459.521,1622.711,417.715,1522.799,295.483z"/>
<path fill="#FFFFFF" d="M1807.652,395.748c0,0-84.676-73.693-164.747,2.48C1642.905,398.229,1694.986,506.643,1807.652,395.748z"/>
<path fill="#FFFFFF" d="M1853.003,610.098c0,0-111.604-11.692-133.216,96.368C1719.787,706.82,1823.95,765.633,1853.003,610.098z"/>
<path fill="#FFFFFF" d="M1848.751,874.756c0,0-67.671-89.637-161.559-31.532C1687.192,842.87,1715.536,959.433,1848.751,874.756z"/>
<path fill="#FFFFFF" d="M1268.414,757.13c0,0-79.716,27.636-59.521,108.415C1208.893,865.545,1298.529,872.276,1268.414,757.13z"/>
<path fill="#FFFFFF" d="M1353.8,805.314c0,0-68.024,49.602-25.51,121.169C1328.29,926.129,1416.156,906.289,1353.8,805.314z"/>
<path fill="#FFFFFF" d="M1141.931,978.565c0,0,72.985-42.516,37.556-117.98C1179.486,860.585,1090.204,871.567,1141.931,978.565z"/>
<path fill="#FFFFFF" d="M1256.014,1021.081c0,0,72.985-42.516,37.556-117.981C1293.569,903.454,1204.287,914.438,1256.014,1021.081z
	"/>
<g>
	<path fill="#FFFFFF" d="M278.158,362.799c0,3.897-0.708,7.44-2.126,10.629c-1.417,3.188-3.188,6.377-5.314,8.857
		c-2.125,2.48-4.96,4.96-7.794,7.086c-2.834,2.126-5.668,3.897-8.857,5.314c-7.086,3.543-15.234,6.731-24.092,8.857
		c-1.063,1.771-2.126,3.897-3.897,6.377c-1.417,2.48-3.188,5.314-5.314,9.212c-2.126,3.543-4.251,8.149-6.731,13.109
		c-2.48,5.314-5.314,11.337-8.503,18.777c-4.96,12.046-11.337,23.738-18.777,35.43c-7.44,11.691-15.943,22.32-25.155,31.532
		c-9.211,9.212-19.486,17.006-30.469,22.675c-10.983,5.669-22.321,8.503-34.367,8.503c-2.834,0-5.669-0.354-8.503-0.708
		c-2.834-0.354-4.96-1.417-7.085-2.835c-2.126-1.417-3.543-2.834-4.606-4.96s-1.771-4.605-1.771-8.148
		c0-8.149,2.48-15.943,7.44-22.675c4.96-6.732,10.983-12.4,18.069-17.361c7.086-4.96,14.526-8.503,22.321-11.337
		c7.794-2.834,14.172-3.897,19.486-3.897c3.543,0,5.314,0.354,6.023,1.063c0.354,0.708,0.709,1.417,0.709,1.771
		c0,0.708-0.354,1.062-1.063,1.417c-0.354,0-0.708,0.354-1.063,0.354c-7.44,1.062-14.526,3.188-21.258,6.731
		c-6.731,3.543-12.754,7.439-18.069,12.4c-5.314,4.605-9.212,9.92-12.4,15.234c-3.189,5.314-4.606,10.274-4.606,14.881
		c0,3.543,1.063,5.668,3.188,7.086c2.126,1.417,4.606,1.771,7.795,1.771c14.88,0,28.344-5.669,41.098-17.361
		c12.754-11.691,24.446-28.344,35.43-50.31c3.897-8.148,7.794-15.943,11.692-23.384c3.897-7.44,7.44-14.172,10.629-20.194
		c3.188-6.023,5.668-10.983,7.794-14.881c2.125-3.897,3.543-6.377,3.897-7.44c-10.983,1.063-19.84,3.189-26.926,6.378
		c-7.086,2.834-12.755,6.022-17.006,9.565s-7.44,7.086-9.212,10.275c-1.771,3.543-2.48,6.377-2.48,8.503
		c0,1.062,0,2.126,0.354,2.479c0,1.771-0.708,2.835-2.48,2.835c-0.354,0-1.063,0-1.771-0.354c-1.063-0.354-1.771-1.062-2.834-1.771
		c-1.063-1.062-1.771-2.126-2.48-3.897c-0.708-1.417-1.063-3.543-1.063-6.022c0-6.732,2.48-12.047,7.086-16.298
		c4.606-4.252,10.629-7.795,17.36-10.274c7.086-2.835,14.526-4.606,23.029-6.378c8.503-1.417,16.298-2.834,23.738-3.897
		c4.96-7.794,10.274-14.88,15.943-21.258c2.48-2.479,4.96-5.313,7.794-7.794s5.669-4.96,8.857-6.731
		c3.189-2.126,6.023-3.543,9.566-4.96c3.189-1.063,6.732-1.771,9.92-1.771c1.771,0,3.897,0.354,5.669,1.417
		C277.095,357.13,278.158,359.256,278.158,362.799z M266.466,367.759c0-0.708-0.354-1.417-0.708-2.126
		c-0.354-0.354-1.417-0.708-2.834-0.708c-2.125,0-4.605,1.417-7.44,3.543c-2.48,1.771-5.314,4.605-8.857,8.503
		s-7.44,9.566-11.692,17.006c6.023-1.771,11.337-3.896,15.943-6.377c3.897-2.126,7.44-4.96,10.629-8.148
		C264.694,375.908,266.466,372.365,266.466,367.759z"/>
	<path fill="#FFFFFF" d="M307.918,505.58c0,0.709-0.354,1.771-0.708,2.834c-0.354,1.063-1.063,2.48-2.48,4.252
		c-1.417,1.417-2.48,3.188-3.543,4.605c-1.063,1.418-2.48,2.835-3.543,4.252c-4.251,4.96-7.794,8.857-11.692,11.691
		c-3.543,3.189-6.731,5.314-9.92,7.086c-2.834,1.771-5.668,2.835-8.148,3.543c-2.48,0.709-4.606,1.063-6.732,1.063
		c-2.125,0-3.897-0.354-4.96-1.063c-1.063-0.708-2.126-1.771-2.48-2.834c-0.708-1.062-1.063-2.126-1.063-3.188
		c0-1.063,0-1.771,0-2.126c0-3.188,0.708-6.731,2.48-10.274c1.417-3.897,3.189-7.795,5.314-11.338
		c1.771-3.897,3.543-7.44,5.314-10.983c1.417-3.543,2.48-6.377,2.48-8.503c0-1.062-0.354-1.771-0.708-2.126
		c-0.354-0.354-1.063-0.354-1.771-0.354c-2.126,0-4.606,1.062-7.794,3.188c-3.189,2.126-6.377,4.605-10.274,7.794
		c-3.543,3.189-7.44,6.732-11.338,10.983c-3.897,3.897-7.44,7.795-10.983,11.692c-3.189,3.896-6.377,7.439-8.857,10.629
		c-2.48,3.188-4.251,5.668-5.314,7.439c-1.417,2.48-3.189,4.252-5.314,4.606c-2.126,0.708-3.543,0.708-4.606,0.708
		c-1.417,0-2.126-0.354-2.48-1.062c-0.354-0.354-0.354-0.709-0.354-1.062c2.48-6.378,5.669-13.109,9.92-20.195
		c3.897-7.44,7.794-14.172,11.692-20.549c1.417-2.835,3.188-5.314,4.606-7.795c1.062-2.126,2.125-4.252,3.188-6.731
		c1.063-2.126,1.417-4.252,1.417-5.669s-0.708-2.479-1.771-2.479c-0.708,0-2.48,0.354-4.251,0.708
		c-2.125,0.354-4.606,1.771-7.794,4.252c-2.834,2.125-5.314,4.251-8.149,6.731c-2.834,2.479-5.668,4.96-8.149,7.794
		c-2.48,2.48-4.605,4.961-6.731,7.086c-1.771,2.126-3.188,3.897-4.251,4.961c-0.354,0.354-0.708,0.708-1.417,0.708
		c-0.354,0-0.709-0.354-1.063-0.708c0-0.354-0.354-0.354-0.354-0.709v-0.709v-0.354c0-0.354,0-0.354,0-0.709
		c0-0.709,0-1.062,0-1.771s0.354-1.417,0.709-2.126c4.96-6.377,10.274-12.046,15.589-17.36c4.605-4.251,9.566-8.503,15.234-12.046
		c5.669-3.543,10.983-5.314,16.298-5.314c3.188,0,5.314,0.709,6.731,2.126c1.063,1.417,1.771,3.188,1.771,5.314
		c0,3.543-0.708,6.731-2.48,10.274c-1.417,3.543-3.188,6.731-4.96,9.92s-3.543,5.669-4.96,8.149c-1.417,2.125-2.48,3.896-2.48,4.605
		c0,0.354,0,0.354,0.354,0.354c0.708,0,1.063-0.354,1.417-0.709c0.354-0.354,1.417-1.417,2.834-2.834
		c1.771-1.771,3.897-3.897,6.377-6.023c2.48-2.479,5.314-4.96,8.503-7.794c3.189-2.835,6.377-5.314,9.92-7.44
		c3.188-2.126,6.377-4.252,9.566-5.669c3.188-1.417,6.023-2.126,8.503-2.126c1.417,0,3.189,0.354,4.606,1.418
		c1.417,1.062,2.126,2.834,2.126,5.314c0,2.834-0.709,6.377-2.48,10.274c-1.417,3.896-3.188,7.794-5.314,12.046
		c-1.771,4.251-3.543,8.148-5.314,11.691s-2.48,6.731-2.48,9.212c0,0.709,0.354,1.771,0.708,2.834
		c0.354,1.063,1.417,1.418,3.189,1.418c0.708,0,2.125-0.354,3.543-1.063c1.417-0.708,3.543-1.771,6.023-3.897
		c2.48-1.771,5.314-4.605,8.857-8.148s7.794-8.503,12.755-14.172c1.062-1.417,2.125-2.48,3.188-3.543s1.771-1.771,2.126-2.126
		l0.354-0.354c0.354,0,0.708,0.354,0.708,0.709c0,0,0.354,0.354,0.354,0.709C307.918,504.163,307.918,504.871,307.918,505.58z"/>
	<path fill="#FFFFFF" d="M565.491,381.576c0,3.897-1.417,8.149-3.897,13.109c-2.479,4.96-6.377,9.566-11.691,14.172
		s-11.691,8.857-19.84,12.4c-7.795,3.897-17.361,6.377-27.99,7.794c-2.479,3.897-5.314,8.149-8.148,12.755
		c-2.834,4.606-5.669,9.566-8.148,14.526c1.417,0,3.188,0.354,5.314,1.062c2.125,0.354,4.605,1.063,6.731,1.771
		c2.126,0.709,3.897,2.126,5.669,3.543c1.417,1.418,2.479,3.543,2.479,5.669c0,0.709-0.354,1.771-0.708,2.835
		c-0.354,1.062-1.063,1.771-1.771,1.771c-0.354,0-0.709,0-1.063-0.354l-0.354-0.354c-0.354-0.709-1.062-1.771-2.125-2.48
		c-1.063-0.708-2.48-1.417-3.897-1.771c-1.417-0.708-3.188-1.417-4.606-1.771c-1.417-0.354-3.188-0.708-4.605-1.062
		s-3.188-0.709-4.96-1.062c-4.252,8.148-8.149,16.297-11.338,24.8c-2.834,7.44-5.669,15.235-7.794,23.738
		c-2.48,8.503-3.543,17.006-3.543,25.51c0,4.605,0.354,9.211,1.417,13.108c0.708,4.252,2.479,7.795,4.605,10.983
		s5.314,5.669,8.857,7.44s8.149,2.834,14.172,2.834c4.606,0,9.921-1.062,15.235-3.543h0.354c0,0,0.354,0,0.709,0s0.354,0,0.709,0
		c1.062,0,1.771,0.354,1.771,1.417c0,1.417-0.709,2.835-2.126,4.252s-3.188,2.479-5.314,3.543c-2.126,1.062-4.606,1.771-7.086,2.126
		c-2.48,0.354-4.96,0.708-7.44,0.708c-7.086,0-12.755-1.417-18.069-3.897c-4.96-2.479-9.212-5.668-12.4-9.92
		s-5.669-8.857-7.44-14.172c-1.417-5.314-2.125-10.629-2.125-15.943c0-8.148,1.062-16.651,3.543-25.509
		c2.479-8.857,4.96-16.652,8.148-24.093c3.188-8.148,7.086-16.298,11.338-24.446c-7.44,0-14.526,1.063-21.612,2.126
		c-7.086,1.417-13.464,2.834-19.132,4.252c-1.063,1.771-2.835,5.313-5.669,10.274c-2.835,4.96-6.378,10.629-10.629,17.006
		c-4.252,6.377-9.212,12.755-14.526,19.486s-11.337,13.109-17.36,18.424c-6.377,5.668-12.755,10.274-19.84,14.171
		c-7.086,3.543-13.818,5.669-20.904,5.669c-3.188,0-6.023-0.708-7.794-2.479c-1.771-1.417-2.834-3.897-2.834-7.44
		c0-7.795,2.834-15.589,8.503-23.738c5.668-8.148,13.109-15.943,21.612-23.029c8.857-7.439,18.069-13.817,28.344-19.486
		c10.274-5.668,19.486-9.92,28.344-12.754c4.605-8.503,8.857-16.652,12.755-24.446c3.896-7.795,7.086-14.881,9.92-21.258
		c2.834-6.378,4.605-12.047,6.377-17.007c1.418-4.96,2.126-8.503,2.126-10.629c0-4.251-0.708-7.439-2.479-9.565
		c-1.771-2.48-3.897-3.897-6.378-5.314c-2.479-1.063-5.314-1.771-8.148-2.126c-2.835-0.354-5.669-0.354-8.149-0.354
		c-8.148,0-17.714,1.771-27.989,4.96c-10.275,3.189-19.841,7.44-29.052,13.109c-8.857,5.669-16.652,12.046-22.675,19.486
		c-6.023,7.44-9.212,15.234-9.212,23.737c0,2.126,0.354,4.606,1.063,6.732c0.708,2.125,1.771,4.251,3.897,5.668
		c1.771,1.771,4.252,3.189,7.086,4.252c2.834,1.062,6.732,1.771,10.983,1.771c1.771,0,4.606-0.354,8.149-0.709
		c3.542-0.354,8.148-1.417,12.754-3.188c4.96-1.771,9.92-4.251,15.589-7.794c5.669-3.543,11.338-8.504,16.652-14.881
		c0,0,0.354-0.354,0.708-0.354c0.354,0,0.709-0.354,1.417-0.354c0.709,0,1.063,0.354,1.063,1.063c0,0.354,0,1.062-0.354,1.417
		c-1.771,5.314-4.605,10.274-9.212,14.526c-4.251,4.251-9.211,8.148-14.88,10.983c-5.669,3.188-11.338,5.314-17.361,7.086
		s-11.691,2.479-17.006,2.479c-10.983,0-19.132-2.479-24.801-7.44c-5.314-4.96-8.149-11.337-8.149-18.777
		c0-7.795,2.834-16.298,8.857-24.801c5.669-8.503,13.463-16.298,23.384-23.384c9.565-7.086,20.903-12.754,33.658-17.36
		c12.754-4.605,25.864-6.731,40.036-6.731c1.062,0,3.543,0,7.086,0.354s7.44,1.417,11.337,2.834
		c3.897,1.417,7.44,3.897,10.629,7.086c3.189,3.188,4.606,7.795,4.606,13.464c0,1.062-0.354,3.188-0.709,6.377
		s-1.417,7.44-3.188,13.108c-1.771,5.669-4.252,12.755-8.148,20.904c-3.543,8.148-8.504,18.423-14.881,29.761
		c3.543-0.709,6.731-1.417,9.212-2.126c2.479-0.354,4.96-1.063,7.794-1.417c2.835-0.354,5.669-0.709,9.212-1.063
		s7.795-0.708,13.464-1.062c6.022-10.629,11.337-19.841,16.651-27.635c-3.188-0.709-6.022-1.771-7.794-3.189
		c-1.771-1.062-3.189-2.479-4.252-3.896c-1.062-1.418-1.771-3.189-2.126-4.961c0.709-1.771,1.417-2.834,2.48-2.834
		c0.354,0,1.062,0,1.417,0.354l0.354,0.354c2.479,1.771,4.96,3.188,7.44,3.896c2.479,0.709,5.314,1.418,8.148,1.771
		c7.086-8.857,14.172-17.006,21.258-23.737c3.188-2.834,6.377-5.669,9.565-8.857c3.543-2.834,6.731-5.314,10.629-7.795
		c3.543-2.125,7.44-3.896,10.983-5.314c3.543-1.417,7.086-1.771,10.274-1.771c2.126,0,3.897,0.354,4.96,1.418
		c1.063,0.708,1.771,1.771,2.48,2.834C565.137,378.388,565.491,379.805,565.491,381.576z M408.185,476.174
		c-14.526,6.377-26.218,13.108-35.076,20.194s-15.589,13.464-20.195,19.841c-4.606,6.023-7.794,11.338-9.566,15.943
		c-1.417,4.252-2.48,7.086-2.48,8.503c0,1.771,0.708,3.188,1.771,3.543c1.062,0.354,2.125,0.709,3.543,0.709
		c3.188,0,6.377-1.063,9.566-2.835c3.543-2.125,6.731-4.605,10.274-7.794s7.086-6.731,10.275-10.983
		c3.543-3.897,6.731-8.148,9.566-12.755C394.012,500.62,401.099,488.929,408.185,476.174z M553.092,386.891
		c0-0.708,0-1.417-0.354-2.125c-0.354-1.418-1.063-2.126-2.48-2.126c-2.834,0-6.731,1.771-11.337,5.669
		c-4.606,3.896-9.212,7.794-13.464,12.4c-5.314,5.314-10.629,11.337-15.943,18.423c3.543-0.354,7.795-1.417,12.755-3.543
		s9.566-4.605,14.172-7.44c4.605-2.834,8.503-6.377,11.691-9.92C551.674,394.331,553.092,390.434,553.092,386.891z"/>
	<path fill="#FFFFFF" d="M541.754,507.706c0,0.708-0.354,1.417-0.709,2.479c-0.354,1.063-1.062,2.126-2.125,3.543
		c-2.835,3.897-6.732,8.149-10.629,12.755c-4.252,4.606-8.504,8.857-13.109,12.755s-9.212,7.086-13.817,9.566
		c-4.606,2.479-9.212,3.896-13.464,3.896c-3.543,0-6.022-1.062-7.439-3.543c-1.418-2.125-1.771-4.605-1.771-7.439
		c0-4.961,1.417-10.629,4.251-17.007c2.835-6.377,6.023-12.4,9.212-18.069c3.897-6.731,8.503-13.463,13.463-20.194
		c0.354-0.709,1.063-1.417,2.126-1.771c0.709-0.354,1.771-0.709,3.188-1.062c1.418-0.354,3.189-0.709,5.669-0.709
		c1.417,0,1.771,0.709,1.771,1.417c0,0.354,0,0.709-0.354,1.417c-1.771,2.835-4.251,6.378-7.439,11.338
		c-3.189,4.605-6.378,9.565-9.566,14.88s-6.023,10.275-8.148,15.235c-2.48,4.96-3.543,8.857-3.543,12.046
		c0,1.062,0.354,2.126,0.708,3.188s1.771,1.771,3.543,1.771c0.709,0,1.771,0,2.835-0.354c1.062,0,2.479-0.708,4.251-1.417
		c1.771-0.708,3.897-2.126,6.378-3.897c2.479-1.771,5.314-4.251,8.148-7.086c1.771-1.417,3.188-3.188,4.96-4.96
		s3.543-3.543,5.314-5.669c1.771-2.125,3.897-4.605,6.023-7.086c2.126-2.479,4.605-5.668,7.44-8.857c0,0,0-0.354,0.354-0.354
		l0.354-0.354c0,0,0.354,0,0.709,0.354l0.708,0.708C541.754,505.58,541.754,506.643,541.754,507.706z M535.377,456.688
		c0,0.708-0.354,1.771-0.709,3.188c-0.709,1.417-1.417,2.834-2.48,4.605c-1.062,1.418-2.125,2.835-3.543,3.897
		c-1.417,1.063-3.188,1.771-5.314,1.771c-2.834,0-4.251-1.771-4.251-4.96c0-1.417,0.354-3.188,1.062-4.605
		c0.709-1.771,1.771-3.189,2.835-4.252c1.062-1.417,2.479-2.126,3.896-2.834c1.418-0.709,2.835-1.063,3.897-1.063
		c1.417,0,2.48,0.354,3.188,1.417C535.022,454.207,535.377,455.271,535.377,456.688z"/>
	<path fill="#FFFFFF" d="M608.361,505.935c-6.023,8.503-12.046,14.526-18.069,18.069c-6.022,3.543-13.463,5.314-22.32,5.314
		c-2.48,5.314-5.669,9.92-9.212,14.172c-3.188,3.543-7.086,7.086-12.046,9.92c-4.605,2.834-10.629,4.605-17.006,4.605
		c-3.543,0-6.378-0.708-8.149-1.771c-1.771-1.417-2.479-2.834-2.479-4.96c0-3.543,1.417-7.086,3.543-10.274
		c2.479-3.188,5.669-6.023,9.565-8.857c3.897-2.48,8.149-4.605,13.109-6.377c4.605-1.771,9.565-2.835,14.172-3.189
		c2.125-4.96,3.896-9.92,5.314-14.171c1.417-4.606,2.479-8.149,3.543-11.692c1.062-3.897,2.125-7.44,2.479-10.629
		c0-0.708-0.354-1.062-0.708-1.062c0,0-0.354,0-0.354,0.354c-1.417,0.708-3.188,2.125-5.314,3.543
		c-2.126,1.417-3.897,2.834-6.023,4.605s-3.897,3.543-5.669,4.96c-1.771,1.771-3.188,3.188-4.605,4.606
		c-1.417,1.417-2.834,2.834-3.897,4.251c-1.062,1.417-2.126,2.48-3.188,3.543c-1.062,1.417-1.771,2.48-2.834,3.543
		c-0.354,0.354-0.709,0.709-1.417,0.709c-0.354,0-0.709-0.354-1.063-0.709c0-0.354-0.354-0.354-0.354-0.708v-0.001
		c0,0,0-0.354,0-0.708s0-0.354,0-0.709c0-1.417,0.354-2.834,1.063-4.251c0.354-0.709,1.062-1.417,1.771-2.48
		c0.708-0.708,1.417-1.417,2.479-2.479c1.063-1.063,1.771-2.126,3.188-3.543c2.126-2.48,4.961-4.961,8.504-8.149
		s7.086-6.022,11.337-8.857c4.252-2.834,8.503-5.669,13.464-8.148c4.605-2.48,9.565-4.252,14.172-5.314
		c0.708,0,1.771,0.354,3.188,1.062c1.417,0.709,2.126,1.771,2.126,3.543c0,0,0,0.354-0.354,0.709s-1.063,0.708-1.771,0.708
		c-2.126,0.709-3.897,1.418-5.669,2.48c-1.417,0.709-2.834,1.771-4.252,3.188c-1.417,1.417-2.125,3.188-2.834,4.96
		c-0.354,0.709-0.709,1.771-0.709,2.835c-0.354,0.708-0.354,1.771-0.708,2.834s-0.354,1.771-0.709,2.48
		c-1.062,5.314-2.126,10.629-3.897,15.589c-1.417,4.96-3.188,9.565-4.605,13.817c2.834,0,5.314-0.354,7.795-0.709
		c2.479-0.354,4.605-1.417,7.086-2.834c2.479-1.417,5.314-3.543,8.148-6.377c2.834-2.835,6.377-6.378,10.274-10.983l0.354-0.354
		c0,0,0.354-0.354,0.709-0.354c0.708,0,1.062,0.354,1.417,0.709s0.708,0.708,0.708,1.417
		C608.361,503.809,608.361,504.871,608.361,505.935z M556.635,529.672c-1.418,0-3.543,0.354-6.732,1.418
		c-3.188,1.062-6.022,2.125-9.211,3.896c-3.189,1.771-5.669,3.543-8.149,6.023c-2.479,2.126-3.543,4.605-3.543,7.44
		c0,1.417,0.354,2.126,1.063,2.479c0.708,0.354,1.771,0.709,3.543,1.063c3.188,0,6.377-1.063,9.211-3.543
		c2.835-2.126,5.314-4.96,7.44-7.795C552.383,537.467,554.863,533.569,556.635,529.672z"/>
	<path fill="#FFFFFF" d="M840.425,362.799c0,3.897-0.708,7.44-2.126,10.629c-1.417,3.188-3.188,6.377-5.314,8.857
		c-2.125,2.48-4.959,4.96-7.794,7.086c-2.834,2.126-5.669,3.897-8.857,5.314c-7.086,3.543-15.234,6.731-24.092,8.857
		c-1.063,1.771-2.126,3.897-3.897,6.377c-1.417,2.48-3.188,5.314-5.314,9.212c-2.126,3.543-4.252,8.149-6.731,13.109
		c-2.48,5.314-5.314,11.337-8.503,18.777c-4.961,12.046-11.338,23.738-18.778,35.43s-15.943,22.32-25.155,31.532
		c-9.211,9.212-19.486,17.006-30.469,22.675c-10.983,5.669-22.32,8.503-34.367,8.503c-2.834,0-5.668-0.354-8.503-0.708
		c-2.834-0.354-4.96-1.417-7.086-2.835c-2.126-1.417-3.543-2.834-4.605-4.96c-1.063-2.126-1.771-4.605-1.771-8.148
		c0-8.149,2.479-15.943,7.44-22.675c4.96-6.732,10.982-12.4,18.068-17.361c7.086-4.96,14.526-8.503,22.321-11.337
		c7.794-2.834,14.172-3.897,19.486-3.897c3.543,0,5.314,0.354,6.022,1.063c0.354,0.708,0.709,1.417,0.709,1.771
		c0,0.708-0.354,1.062-1.063,1.417c-0.354,0-0.708,0.354-1.062,0.354c-7.44,1.062-14.526,3.188-21.258,6.731
		s-12.755,7.439-18.069,12.4c-5.314,4.605-9.211,9.92-12.4,15.234c-3.188,5.314-4.605,10.274-4.605,14.881
		c0,3.543,1.062,5.668,3.188,7.086c2.126,1.417,4.606,1.771,7.795,1.771c14.88,0,28.343-5.669,41.098-17.361
		c12.755-11.691,24.446-28.344,35.43-50.31c3.897-8.148,7.795-15.943,11.692-23.384c3.896-7.44,7.439-14.172,10.629-20.194
		c3.188-6.023,5.668-10.983,7.794-14.881s3.543-6.377,3.897-7.44c-10.983,1.063-19.841,3.189-26.927,6.378
		c-7.086,2.834-12.755,6.022-17.006,9.565c-4.252,3.543-7.44,7.086-8.857,10.275c-1.771,3.543-2.48,6.377-2.48,8.503
		c0,1.062,0,2.126,0.354,2.479c0,1.771-0.709,2.835-2.48,2.835c-0.354,0-1.062,0-1.771-0.354c-0.708-0.354-1.771-1.062-2.834-1.771
		c-1.062-1.062-1.771-2.126-2.48-3.897c-0.708-1.417-1.062-3.543-1.062-6.022c0-6.732,2.48-12.047,7.086-16.298
		c4.605-4.252,10.629-7.795,17.36-10.274c7.086-2.835,14.526-4.606,23.029-6.378c8.503-1.417,16.298-2.834,23.738-3.897
		c4.96-7.794,10.274-14.88,15.943-21.258c2.479-2.479,4.96-5.313,7.794-7.794c2.835-2.48,5.669-4.96,8.857-6.731
		c3.188-2.126,6.023-3.543,9.566-4.96c3.188-1.063,6.731-1.771,9.92-1.771c1.771,0,3.897,0.354,5.669,1.417
		C839.362,357.13,840.425,359.256,840.425,362.799z M828.733,367.759c0-0.708-0.354-1.417-0.708-2.126
		c-0.354-0.354-1.418-0.708-2.835-0.708c-2.126,0-4.605,1.417-7.44,3.543c-2.479,1.771-5.314,4.605-8.857,8.503
		s-7.439,9.566-11.691,17.006c6.023-1.771,11.338-3.896,15.943-6.377c3.897-2.126,7.44-4.96,10.629-8.148
		C826.962,375.908,828.733,372.365,828.733,367.759z"/>
	<path fill="#FFFFFF" d="M909.867,505.58c0,0.709-0.354,1.771-0.709,2.834c-0.354,1.063-1.062,2.48-2.479,4.252
		c-9.921,12.755-19.132,21.967-26.927,27.989c-7.795,5.669-15.234,8.857-22.32,8.857c-2.126,0-3.897-0.354-5.314-1.062
		c-1.418-0.709-2.126-1.771-2.835-2.835c-0.708-1.062-0.708-2.125-1.062-3.188c0-1.062,0-1.771,0-2.126
		c0-2.479,0.708-5.668,2.126-9.565c1.417-3.897,2.834-7.44,4.251-10.983c1.771-4.252,3.897-8.503,6.378-12.755
		c2.479-4.251,3.896-7.44,4.96-9.565c0.708-2.126,1.062-3.897,1.062-4.961c0-0.708,0-1.062-0.354-1.417l-0.354-0.354
		c-0.354-0.354-1.063-0.708-1.771-0.708c-2.126,0-4.606,1.062-7.44,2.834c-3.188,1.771-6.378,4.252-9.921,7.086
		c-3.543,2.835-7.086,6.023-10.629,9.566s-6.731,7.086-9.92,10.274s-6.023,6.377-8.148,9.212c-2.48,2.834-4.252,4.96-5.314,6.377
		c-1.418,2.126-3.189,3.188-4.961,3.543s-3.188,0.709-4.251,0.709c-0.354,0-0.354,0-0.709,0s-0.354,0-0.354,0h0.001
		c-1.063,0-1.417-0.354-1.417-1.417c0-0.354,0-1.063,0.354-1.418c0-0.354,0.354-0.354,0.354-0.708
		c3.897-7.795,6.731-14.526,8.857-19.486s3.897-9.212,4.96-12.4c1.063-3.188,1.771-5.314,1.771-6.378
		c0.354-1.062,0.354-1.771,0.354-2.125c0-1.418-0.708-2.126-1.771-2.126c-1.417,0-3.543,0.708-6.377,2.479
		c-2.835,1.771-6.023,3.897-9.212,6.378c-3.543,2.479-7.086,5.669-10.629,8.857c-3.897,3.543-7.44,6.731-10.629,10.274
		c-3.543,3.543-6.377,7.086-9.212,10.629c-2.834,3.543-4.96,6.731-6.731,9.566c-1.417,2.479-3.188,3.896-5.314,4.605
		c-2.126,0.708-3.543,0.708-4.605,0.708c-1.418,0-2.126-0.354-2.48-0.354c-0.354-0.354-0.354-0.709-0.354-1.063
		c2.126-5.669,4.606-11.691,8.149-17.715c3.543-6.377,6.731-12.046,10.274-17.715c3.188-5.668,6.377-10.629,8.857-15.234
		c2.479-4.605,3.543-8.148,3.543-10.629c0-1.062-0.354-1.771-0.709-2.126s-1.417-0.354-2.479-0.354
		c-1.771,0-4.252,1.063-7.086,2.835c-3.189,2.126-6.378,4.605-9.921,7.794c-3.543,3.189-7.44,6.732-10.983,10.629
		c-3.896,3.897-7.086,7.795-10.274,11.692c-0.354,0.354-0.708,0.708-1.062,1.062s-0.709,0.709-1.063,0.709
		c-0.708,0-1.062-0.709-1.062-1.771c0-1.063,0-2.126,0-2.835c0-0.708,0-1.062,0-1.771c0-0.708,0.354-1.417,0.709-2.126
		c1.771-2.479,4.251-5.668,8.148-9.92c3.897-3.897,7.795-8.148,12.755-12.046c4.605-3.897,9.565-7.086,14.526-9.92
		c4.96-2.835,9.565-4.252,13.817-4.252c2.834,0,4.96,0.709,6.022,2.126c1.063,1.417,1.771,3.188,1.771,5.314
		c0,2.479-0.708,5.314-1.771,8.148c-1.062,2.835-2.479,5.669-3.896,8.503c-1.418,2.835-3.189,5.314-4.606,7.795
		c-1.417,2.479-2.834,4.251-3.543,6.022c0,0,0,0.354-0.354,0.709c-0.354,0.709-0.354,1.062-0.354,1.417s0,0.354,0.354,0.354
		c0.354,0,0.709-0.354,1.418-0.709c0.354-0.354,1.062-1.062,2.834-2.834c1.417-1.417,3.543-3.188,6.023-5.314
		c2.479-2.126,4.959-4.251,8.148-6.731c3.188-2.48,6.022-4.605,9.212-6.731c3.188-2.126,6.022-3.897,9.211-4.96
		c2.835-1.418,5.669-2.126,7.795-2.126c1.417,0,2.834,0.354,4.251,1.417c1.418,0.709,1.771,2.48,1.771,5.314
		c0,1.417,0,2.48-0.354,3.897c-0.354,1.062-0.709,2.834-1.063,4.251c-0.354,1.771-1.062,3.897-2.126,6.378
		c-1.062,2.479-2.125,5.669-3.543,9.212v0.354v0.354v0.354c0,0.354,0,0.709,0.354,0.709s0.709-0.354,1.417-0.709
		c3.189-3.543,6.378-6.377,8.857-9.212c2.835-2.834,5.669-5.669,9.212-8.503c3.543-3.188,7.086-6.023,10.629-8.503
		c3.543-2.835,7.44-4.96,10.983-6.731s7.086-2.835,10.274-2.835c1.417,0,3.188,0.354,4.606,1.063
		c1.417,0.708,2.125,2.479,2.125,4.605c0,1.417-0.354,3.543-1.062,6.731s-2.834,8.149-6.023,14.526
		c-2.125,4.252-4.251,8.148-6.022,12.046c-1.417,3.188-3.188,6.731-4.252,9.921c-1.417,3.543-2.126,6.022-2.126,8.148
		c0,0.709,0.354,1.771,0.709,2.834c0.354,1.063,1.771,1.418,3.543,1.418c1.062,0,2.48-0.354,4.252-0.709s4.251-1.771,7.086-3.897
		c2.834-2.126,6.377-5.314,10.629-9.565c4.251-4.252,9.211-10.275,15.234-17.715c1.062-1.418,2.126-2.48,3.188-3.543
		c1.063-1.063,1.771-1.771,2.126-2.126l0.354-0.354c0.354,0,0.708,0.354,0.708,0.709c0,0,0.354,0.354,0.354,0.708
		C909.867,504.163,909.867,504.871,909.867,505.58z"/>
	<path fill="#FFFFFF" d="M994.544,507.706c0,0.708,0,1.417-0.354,2.479c-0.354,1.063-1.062,2.126-2.126,3.543
		c-6.731,8.857-13.108,15.943-18.423,20.904c-5.669,4.96-10.275,8.857-14.526,11.337c-3.897,2.48-7.44,3.897-9.921,4.606
		c-2.479,0.708-3.896,1.062-4.605,1.062c-4.251,0-7.086-1.062-8.503-3.188s-2.126-4.606-2.126-7.44c0-3.188,0.354-6.023,1.418-8.148
		c0.708-2.126,1.417-3.543,1.417-3.897s0-0.354-0.354-0.354l-0.354,0.354l-0.354,0.354c-3.543,3.896-7.086,7.086-10.274,9.211
		c-3.188,2.126-6.377,3.897-9.212,5.314c-2.834,1.063-5.314,1.771-7.086,2.126c-2.125,0.354-3.543,0.354-4.605,0.354
		c-2.126,0-3.897-0.354-5.314-1.062c-1.417-0.709-2.48-1.771-3.188-2.835c-0.709-1.062-1.063-2.479-1.417-3.897
		c-0.354-1.417-0.354-2.834-0.354-4.251c0-5.669,1.771-11.692,4.96-18.069s7.44-12.4,12.755-18.069s10.983-10.274,17.36-13.817
		s12.4-5.669,18.423-5.669c2.48,0,4.606,0.354,6.731,1.417c2.126,1.063,3.543,2.835,4.606,5.314c0,0,0,0.354,0.354,0.354
		c0.354,0.354,0.354,0.354,0.708,0.354c0,0,0.354-0.354,0.709-0.708c1.062-2.126,2.479-4.252,4.251-5.669s3.543-2.126,5.669-2.126
		c0.709,0,2.126,0,3.543,0.354s2.126,1.062,2.126,1.771v0.708c0,0,0,0.354-0.354,0.354c-2.479,2.835-4.96,6.378-7.44,10.274
		c-2.479,3.897-4.96,7.795-6.731,11.338c-2.479,4.251-4.605,8.503-7.086,12.755c-1.417,2.834-2.834,5.668-4.251,8.148
		c-1.063,2.126-2.126,4.605-2.834,7.086c-0.709,2.48-1.418,4.96-1.418,6.731c0,1.417,0.354,2.835,1.062,3.897
		c0.709,1.062,2.126,1.771,4.252,1.771c1.417,0,3.188-0.354,5.314-1.417c2.126-1.063,4.605-2.835,7.795-5.669
		c3.188-2.834,7.086-6.731,11.691-11.691c4.605-4.961,10.274-11.338,16.652-19.133c0,0,0-0.354,0.354-0.354
		c0,0,0.354-0.354,0.709-0.354c0,0,0.354,0.354,1.062,0.708C994.189,505.935,994.544,506.643,994.544,507.706z M953.091,490.699
		c0-2.479-0.708-3.896-1.771-4.605c-1.062-0.708-2.479-1.062-3.897-1.062c-3.542,0-7.439,1.771-12.045,4.96
		c-4.606,3.188-9.212,7.44-13.464,12.4c-4.251,4.96-7.794,9.92-10.983,15.589c-2.834,5.314-4.605,10.274-4.605,14.172
		c0,1.417,0.354,2.834,1.062,3.897c0.709,1.417,2.126,1.771,4.252,1.771c2.48,0,5.669-1.063,8.857-3.188
		c3.543-2.126,7.086-4.961,10.629-8.857c3.543-3.543,7.086-7.795,10.983-12.755c3.542-4.96,6.731-9.921,9.565-15.589
		c0.709-1.418,1.062-2.835,1.417-3.897C952.736,492.825,953.091,491.763,953.091,490.699z"/>
	<path fill="#FFFFFF" d="M1013.676,564.394c0.709-2.126,1.771-3.897,3.188-6.023c-0.354,0-0.708,0-0.708,0
		c1.417-2.479,2.834-4.605,3.543-6.731c1.062-2.126,1.771-3.897,2.834-5.314l2.48-4.605c1.771-3.189,3.543-6.378,4.96-9.566
		c1.771-3.188,3.188-6.023,4.605-8.503c1.417-2.835,3.188-5.669,4.605-8.149c2.126-4.251,4.606-8.503,7.086-12.754
		c2.126-3.543,4.606-7.44,7.086-11.338c2.48-3.897,5.314-7.44,7.44-10.274l0.354-0.354c0,0,0.354-0.354,0.354-0.708
		c0-1.063-1.771-1.771-5.314-1.771c-0.709,0-1.771,0-2.834,0.354c-1.063,0.354-1.771,0.709-2.835,1.418
		c-0.708,0.354-1.062,1.062-1.417,1.417c-0.354,0.708-1.062,1.417-1.417,2.126c-0.709,0.708-1.063,1.417-1.417,2.479
		c-0.354,0.354-0.709,0.709-1.063,0.709c0,0-0.354,0-0.708-0.354l-0.354-0.354c-0.709-2.479-2.126-4.251-4.252-5.314
		c-2.126-1.062-4.251-1.417-6.731-1.417c-7.44,0-14.526,2.126-20.903,6.023c-6.378,4.251-12.4,8.856-17.007,14.88
		c-4.96,5.669-8.857,11.691-11.337,18.069c-2.834,6.377-4.252,11.691-4.252,15.943c0,4.251,0.709,7.086,2.48,9.212
		c1.771,2.125,4.96,2.834,9.212,2.834c2.479,0,4.96-0.709,7.794-1.771c2.48-1.062,5.314-2.48,8.503-4.252
		c3.189-1.771,6.732-4.605,10.275-7.794l0.708-0.354c0.354,0,0.354,0.354,0.354,0.709c0,0-0.354,1.062-1.062,2.834
		c-0.709,1.771-1.771,3.897-3.188,6.377c-1.417,2.48-2.835,5.669-4.606,9.212s-3.896,7.086-6.022,10.983
		c-9.212,2.126-17.36,5.314-24.801,9.566c-7.44,4.251-13.817,8.857-19.132,14.172s-9.566,10.629-12.4,15.942
		c-2.835,5.314-4.606,10.275-4.606,14.881c0,4.252,1.063,7.086,2.835,8.503c2.125,1.771,4.251,2.48,6.731,2.48
		c5.314,0,10.629-2.126,16.298-6.378c5.668-4.251,11.337-9.565,16.651-15.589c5.314-6.377,10.274-13.108,15.235-20.194
		c4.605-7.086,8.857-13.817,12.4-20.195C1012.967,564.394,1013.321,564.394,1013.676,564.394z M1013.321,528.255
		c-3.188,2.835-6.377,5.314-9.565,7.086c-3.189,1.771-6.023,2.835-8.504,2.835c-1.771,0-3.188-0.709-3.543-1.771
		c-0.708-1.063-0.708-2.126-0.708-3.543c0-4.606,1.417-9.921,4.605-15.235c2.835-5.314,6.731-10.629,10.983-15.589
		s8.857-8.857,13.463-12.046c4.606-3.188,8.857-4.605,12.4-4.605c3.897,0,5.669,1.771,5.669,5.668c0,1.771-0.709,4.252-2.126,7.44
		s-3.188,6.378-5.669,9.921c-2.126,3.543-4.96,6.731-7.794,10.274S1016.51,525.421,1013.321,528.255z M982.852,593.445
		c-2.479,3.188-4.96,6.378-7.086,9.212c-2.479,3.188-4.96,5.669-7.086,8.148c-2.479,2.48-4.605,4.252-6.731,5.669
		s-3.897,2.126-5.669,2.126c-1.417,0-2.479-0.709-2.834-1.771c-0.354-1.417-0.709-2.48-0.709-3.543
		c0-3.543,1.063-7.086,3.543-11.338c2.48-4.251,5.669-8.503,9.921-12.399c4.251-4.252,9.212-8.149,15.234-11.692
		c5.669-3.543,12.046-6.731,19.132-9.212C993.835,577.502,988.166,586.005,982.852,593.445z"/>
	<path fill="#FFFFFF" d="M1133.428,507.706c0,0.708-0.354,1.771-1.062,3.188c-0.709,1.417-1.418,2.834-2.48,4.252
		c-2.126,3.543-5.314,7.086-9.212,11.337c-3.897,4.252-8.503,8.149-13.463,11.692s-9.92,6.731-15.589,9.211
		c-5.314,2.48-10.983,3.897-16.298,3.897c-1.771,0-3.543-0.354-6.023-0.708c-2.125-0.354-4.251-1.063-6.377-2.48
		s-3.543-3.188-4.96-5.669c-1.417-2.479-2.126-6.022-2.126-10.629c0-6.731,1.417-13.463,4.605-20.194
		c3.189-6.731,7.086-12.4,11.692-17.715c4.605-5.314,9.92-9.566,15.589-12.755s10.983-4.605,16.298-4.605
		c2.834,0,5.314,0.708,7.439,2.125c2.126,1.418,3.189,3.897,3.189,7.795c0,3.543-1.063,7.086-3.189,11.337
		c-2.125,3.897-5.314,7.795-9.211,11.338c-3.897,3.543-8.504,6.731-13.818,8.857c-5.314,2.48-10.982,3.897-17.36,4.252h-0.354
		l-0.354,0.708c-1.063,3.188-1.771,6.378-1.771,9.212c0,2.126,0.354,4.252,1.062,5.669c0.709,1.417,1.417,2.479,2.48,3.543
		c1.062,0.708,2.125,1.417,3.543,1.771c1.417,0.354,2.479,0.354,3.543,0.354c2.479,0,5.314-0.354,8.857-1.418
		c3.188-1.062,7.086-2.834,11.337-5.668c4.252-2.835,8.857-6.732,14.172-11.692s10.983-11.691,17.007-19.841
		c0-0.354,0.354-0.354,0.354-0.708c0.354-0.354,0.709-0.354,0.709-0.354c0.354,0,0.709,0.354,1.062,0.709
		C1133.073,505.935,1133.428,506.643,1133.428,507.706z M1106.501,486.803c0-0.709-0.354-1.417-1.062-2.126
		s-1.417-1.063-2.834-1.063c-2.835,0-5.669,1.418-8.857,3.897c-3.188,2.48-6.378,5.669-9.212,8.857
		c-2.834,3.543-5.314,7.086-7.44,10.629s-3.543,6.731-4.251,8.857c0,0.354,0,0.354,0.354,0.709l0.354,0.354
		c3.897-0.354,7.795-1.771,11.692-3.897c3.896-2.126,7.439-4.606,10.628-7.44c3.189-2.834,5.669-6.023,7.795-9.212
		C1105.438,492.825,1106.501,489.637,1106.501,486.803z"/>
	<path fill="none" stroke="#FFFFFF" stroke-width="2" stroke-miterlimit="10" d="M1007.299,561.559c0,0,82.551,4.96,59.876,37.91
		c-22.675,32.949,59.876,23.029,85.739,13.108"/>
</g>
<g>
	<path fill="#FFFFFF" d="M345.474,642.338v20.195h-3.188V603.72h15.235c4.606,0.709,8.149,2.48,11.337,5.669
		c3.897,3.897,5.669,8.149,5.669,13.463c0,5.314-1.771,9.921-5.669,13.464c-3.897,3.897-8.149,5.669-13.463,5.669h-9.92V642.338z
		 M345.474,607.617v31.532h9.92c4.251,0,8.149-1.417,11.337-4.605c3.189-3.188,4.606-6.731,4.606-11.338
		c0-4.251-1.417-8.148-4.606-11.337c-3.188-3.188-6.731-4.606-11.337-4.606h-9.92V607.617z"/>
	<path fill="#FFFFFF" d="M398.264,604.074h3.189v24.446c2.834-2.834,6.022-3.897,9.92-3.897c4.252,0,7.794,1.418,10.274,3.897
		c2.835,2.835,3.897,6.023,4.252,9.921v24.092h-3.189v-23.738c0-3.188-1.062-5.668-3.188-7.794c-2.125-2.126-4.96-3.188-7.794-3.188
		c-3.188,0-5.669,1.062-7.795,3.188c-1.062,1.062-1.771,2.126-2.126,3.188v28.698h-3.188v-58.813H398.264z"/>
	<path fill="#FFFFFF" d="M470.186,623.561c5.669,0,10.275,2.126,14.172,6.023c3.897,3.896,6.023,8.857,6.023,14.172
		c0,5.668-2.126,10.274-6.023,14.172c-3.896,3.896-8.503,6.022-14.172,6.022c-5.668,0-10.274-2.126-14.172-6.022
		c-3.896-3.897-6.022-8.857-6.022-14.172c0-5.669,2.126-10.275,6.022-14.172C459.911,625.687,464.518,623.561,470.186,623.561z
		 M458.14,632.063c-3.188,3.188-4.96,7.086-4.96,11.692c0,4.605,1.771,8.503,4.96,11.691s7.086,4.96,11.692,4.96
		c4.605,0,8.503-1.771,11.691-4.96s4.96-7.086,4.96-11.691c0-4.606-1.771-8.504-4.96-11.692s-7.086-4.96-11.691-4.96
		C465.226,627.104,461.328,628.521,458.14,632.063z"/>
	<path fill="#FFFFFF" d="M514.119,606.555v-26.218h5.668v26.218h12.4v5.669h-12.4v55.624h-5.668v-55.624h-12.4v-5.669H514.119z"/>
	<path fill="#FFFFFF" d="M570.806,623.561c5.669,0,10.274,2.126,14.172,6.023c3.897,3.896,6.023,8.857,6.023,14.172
		c0,5.668-2.126,10.274-6.023,14.172c-3.897,3.896-8.503,6.022-14.172,6.022s-10.274-2.126-14.171-6.022
		c-3.897-3.897-6.023-8.857-6.023-14.172c0-5.669,2.126-10.275,6.023-14.172C560.531,625.687,565.491,623.561,570.806,623.561z
		 M559.114,632.063c-3.188,3.188-4.96,7.086-4.96,11.692c0,4.605,1.771,8.503,4.96,11.691s7.086,4.96,11.691,4.96
		c4.606,0,8.503-1.771,11.692-4.96c3.188-3.188,4.96-7.086,4.96-11.691c0-4.606-1.771-8.504-4.96-11.692
		c-3.189-3.188-7.086-4.96-11.692-4.96C566.2,627.104,562.303,628.521,559.114,632.063z"/>
	<path fill="#FFFFFF" d="M649.46,655.802c-0.709,0.708-1.417,1.417-2.126,2.126c-3.897,3.896-8.857,6.022-14.172,6.022
		c-5.669,0-10.274-2.126-14.172-6.022c-3.897-3.897-6.023-8.857-6.023-14.172c0-5.669,2.126-10.274,6.023-14.172
		s8.857-6.023,14.172-6.023c5.669,0,10.274,2.126,14.172,6.023c0.709,0.708,1.417,1.417,2.126,2.479v-4.96h3.188v27.989
		c0,5.314-1.771,9.921-5.669,13.817c-3.897,3.897-8.503,6.023-14.172,6.023s-10.274-2.126-14.172-6.023
		c-0.708-0.708-1.417-1.771-2.126-2.479l3.543-1.417c0.354,0.354,0.709,0.708,1.063,1.417c3.188,3.188,7.086,4.96,11.691,4.96
		c4.606,0,8.503-1.771,11.692-4.96C647.688,663.242,649.46,659.699,649.46,655.802z M649.814,640.213
		c-0.709-3.189-2.126-6.023-4.606-8.504c-3.188-3.188-7.086-4.96-11.691-4.96c-4.606,0-8.503,1.771-11.692,4.96
		c-3.188,3.189-4.96,7.086-4.96,11.692c0,4.605,1.771,8.503,4.96,11.691c3.189,3.188,7.086,4.96,11.692,4.96
		c4.605,0,8.503-1.771,11.691-4.96c2.48-2.479,3.897-4.96,4.606-8.148V640.213z"/>
	<path fill="#FFFFFF" d="M689.85,629.584c-2.48,0.354-4.605,1.771-7.086,4.605c-2.126,2.48-3.543,5.314-3.543,7.795v20.549h-3.188
		v-36.139h3.188v7.795c1.417-3.543,4.252-6.377,8.503-8.148L689.85,629.584z"/>
	<path fill="#FFFFFF" d="M749.726,662.888h-3.188v-7.44c-0.709,0.709-1.418,1.771-2.126,2.48c-3.897,3.896-8.857,6.022-14.172,6.022
		c-5.669,0-10.274-2.126-14.172-6.022c-3.897-3.897-6.023-8.857-6.023-14.172c0-5.669,2.126-10.275,6.023-14.172
		c3.897-3.897,8.857-6.023,14.172-6.023c5.669,0,10.274,2.126,14.172,6.023c0.708,0.708,1.417,1.417,2.126,2.479v-4.96h3.188
		V662.888z M746.537,646.944v-6.378c-0.709-3.188-2.126-6.022-4.606-8.503c-3.188-3.188-7.086-4.96-11.691-4.96
		c-4.606,0-8.503,1.771-11.692,4.96c-3.188,3.188-4.96,7.086-4.96,11.692c0,4.605,1.771,8.503,4.96,11.691
		c3.189,3.188,7.086,4.96,11.692,4.96c4.605,0,8.503-1.771,11.691-4.96C744.411,652.967,745.828,650.133,746.537,646.944z"/>
	<path fill="#FFFFFF" d="M774.172,626.749h3.188v4.96c0.709-0.708,1.417-1.771,2.126-2.479c3.897-3.897,8.503-6.023,14.172-6.023
		s10.274,2.126,14.172,6.023s6.022,8.503,6.022,14.172s-2.126,10.274-6.022,14.172c-3.897,3.897-8.503,6.022-14.172,6.022
		s-10.274-2.125-14.172-6.022c-0.709-0.709-1.417-1.417-2.126-2.48v20.903h-3.188V626.749z M777.715,640.213v6.731
		c0.709,3.188,2.126,6.022,4.605,8.148c3.189,3.188,7.086,4.96,11.692,4.96c4.605,0,8.503-1.771,11.691-4.96s4.96-7.086,4.96-11.691
		c0-4.606-1.771-8.503-4.96-11.692c-3.188-3.188-7.086-4.96-11.691-4.96c-4.606,0-8.503,1.771-11.692,4.96
		C779.841,634.189,778.069,637.023,777.715,640.213z"/>
	<path fill="#FFFFFF" d="M837.591,604.074h3.188v24.446c2.834-2.834,6.023-3.897,9.92-3.897c4.252,0,7.795,1.418,10.275,3.897
		c2.834,2.835,3.896,6.023,4.251,9.921v24.092h-3.188v-23.738c0-3.188-1.062-5.668-3.188-7.794s-4.96-3.188-7.795-3.188
		c-3.188,0-5.669,1.062-7.794,3.188c-1.063,1.062-1.771,2.126-2.126,3.188v28.698h-3.188v-58.813H837.591z"/>
	<path fill="#FFFFFF" d="M894.633,676.705h-3.543l9.565-20.549l-13.817-29.407h3.543l11.691,25.155l12.047-25.155h3.543
		L894.633,676.705z"/>
</g>
<path fill="#FFFFFF" d="M1229.796,495.306c-7.794,0.708,0-2.835-0.354-5.669c-35.783-30.115-66.961-65.19-77.236-124.004
	c-4.251,3.189-6.731,8.504-6.731,15.59c-6.022,1.062-5.314-4.606-9.92-4.961c-5.669,7.44-1.771,23.384-1.771,36.139
	c-0.354,7.44-7.795,8.503-8.503,15.589c-0.354,27.989,7.794,46.413,13.463,67.316c14.172,11.337,42.161,34.721,63.064,13.108
	c-10.982,28.344-53.498,2.835-70.505-9.211c-5.314-28.344-23.029-70.859-3.543-92.472c-1.417-13.108-1.771-25.155,1.771-34.013
	c2.126-2.834,8.857-3.188,11.338-0.708c4.252-10.629,8.503-30.115,20.903-27.636c0.354,52.791,19.486,85.74,44.287,110.541
	C1217.396,465.899,1241.842,475.465,1229.796,495.306z"/>
<path fill="#FFFFFF" d="M1265.226,362.799c-15.234,25.863-32.949,62.002-18.423,103.101c-3.189,2.479-0.709,9.92-8.857,8.148
	c-2.835-35.075-4.252-76.882,13.108-98.849c-2.479-6.377-12.4,10.274-11.337-3.188c-9.921,2.479-10.629,13.108-15.943,19.841
	c-9.212-4.961-10.983,3.543-12.755,10.274c-4.605-3.543,0.709-13.817,2.834-17.007c13.109,4.252,11.692-12.754,21.612-16.297
	c3.188,0.354,9.212-2.48,7.795,3.188C1249.991,368.468,1254.951,363.153,1265.226,362.799z"/>
<path fill="#FFFFFF" d="M1308.805,492.471c-4.961-1.417-7.795-4.605-13.464-4.96c-22.675,23.384-24.446,77.945-76.882,70.505
	c-0.709,0-5.669-3.896-9.566-3.188c52.436-2.834,58.104-46.767,84.322-72.984c-21.611-40.036-41.452,11.337-59.167,22.32
	c13.108-17.715,17.006-49.956,46.413-44.287C1293.924,462.71,1297.467,482.905,1308.805,492.471z"/>
<path fill="#FFFFFF" d="M1555.395,874.048c6.731,1.771,13.817-2.126,15.589-9.212l40.39-149.513
	c1.771-6.731-2.126-13.817-9.212-15.589l-84.677-23.029c-6.731-1.771-13.817,2.126-15.589,9.212l-40.39,149.513
	c-1.771,6.731,2.126,13.817,9.212,15.589L1555.395,874.048z M1490.912,754.65c7.44-27.281,35.43-43.225,62.711-36.139
	c27.28,7.44,43.224,35.43,36.138,62.711c-7.44,27.28-35.429,43.224-62.71,36.138C1499.77,809.92,1483.472,781.931,1490.912,754.65z"
	/>
<path fill="#FFFFFF" d="M1579.132,779.097c0,0-23.384,31.178-49.247,20.194C1530.239,799.646,1553.623,795.748,1579.132,779.097z"/>
<path fill="#FFFFFF" d="M1566.377,416.652c0,0,139.947,163.685,36.139,282.728l-20.195-4.251
	C1582.32,695.482,1701.719,655.447,1566.377,416.652z"/>
<path fill="#FFFFFF" d="M1554.331,432.595c0,0-87.511,227.458-19.841,254.03l12.047,8.857
	C1546.537,695.482,1482.764,664.659,1554.331,432.595z"/>
<path fill="#737372" d="M1168.148,531.443"/>
<path fill="#FFFFFF" d="M1188.344,548.45l-10.983,13.108l-9.92-10.629l-0.354,0.354c-8.857-8.857-41.453-38.264-38.618-39.681
	c-57.396-62.002-55.979-182.463-134.633-223.207c70.15,19.84,84.677,134.278,134.633,198.406
	c13.817,17.715,27.989,33.304,43.224,47.476h0.354L1188.344,548.45z"/>
<path d="M1227.316,599.823c1.771,1.062,3.188,2.125,4.96,3.188l0,0L1227.316,599.823z"/>
<path d="M1251.408,592.383c-6.377-3.543-12.4-7.086-18.424-10.983L1251.408,592.383z"/>
<path fill="#FFFFFF" d="M1199.682,528.964c-1.063,7.086-3.897,13.463-7.795,19.486c-4.252,6.731-10.274,12.755-17.006,18.423
	c-11.338,9.566-25.51,17.007-39.682,22.321c2.126,4.251,12.046,0,17.006,0.708c-8.503,15.235,21.612,12.046,18.424,21.612
	c11.338-7.795,18.069-19.841,24.092-32.241c3.188-6.377,6.731-13.108,10.629-18.777c-2.48,20.194-17.36,45.35-34.366,58.813
	c-4.96-12.4-26.572-6.023-25.864-24.801c-10.982,1.771-18.423-0.709-26.572-2.126
	C1150.08,575.376,1184.092,560.496,1199.682,528.964z"/>
<path fill="#FFFFFF" d="M997.732,209.743c0,0-44.287,103.101,53.145,155.89C1050.522,365.279,1137.68,283.083,997.732,209.743z"/>
<path fill="#FFFFFF" d="M1724.748,942.072c0,0-67.671-89.637-161.56-31.532C1563.188,910.186,1591.532,1026.749,1724.748,942.072z"
	/>
<path fill="#FFFFFF" d="M1540.514,1078.831c0,0,51.373-99.912-41.807-159.079C1498.707,919.752,1405.881,995.926,1540.514,1078.831z
	"/>
</svg>
